PathFileType	4	(X/Y/Z)	C:/Users/opensim2020/Desktop/walking_exp_matlab/subject06_walking14_straight_01.trc	
DataRate	CameraRate	NumFrames	NumMarkers	Units	OrigDataRate	OrigDataStartFrame	OrigNumFrames	
100.00	100.00	6	45	mm	100.00	962	203	
Frame#	Time	LFHD			RFHD			LBHD			RBHD			C7			T10			CLAV			STRN			RBAK			LSHO			LUPA			LELB			LFRM			LWRA			LWRB			LFIN			RSHO			RUPA			RELB			RFRM			RWRA			RWRB			RFIN			LASI			RASI			LPSI			RPSI			LTHI			LKNE			LTIB			LANK			LHEE			LTOE			RTHI			RKNE			RTIB			RANK			RHEE			RTOE			*39			*40			*41			*42			*43			*44			
		X1	Y1	Z1	X2	Y2	Z2	X3	Y3	Z3	X4	Y4	Z4	X5	Y5	Z5	X6	Y6	Z6	X7	Y7	Z7	X8	Y8	Z8	X9	Y9	Z9	X10	Y10	Z10	X11	Y11	Z11	X12	Y12	Z12	X13	Y13	Z13	X14	Y14	Z14	X15	Y15	Z15	X16	Y16	Z16	X17	Y17	Z17	X18	Y18	Z18	X19	Y19	Z19	X20	Y20	Z20	X21	Y21	Z21	X22	Y22	Z22	X23	Y23	Z23	X24	Y24	Z24	X25	Y25	Z25	X26	Y26	Z26	X27	Y27	Z27	X28	Y28	Z28	X29	Y29	Z29	X30	Y30	Z30	X31	Y31	Z31	X32	Y32	Z32	X33	Y33	Z33	X34	Y34	Z34	X35	Y35	Z35	X36	Y36	Z36	X37	Y37	Z37	X38	Y38	Z38	X39	Y39	Z39	X40	Y40	Z40	X41	Y41	Z41	X42	Y42	Z42	X43	Y43	Z43	X44	Y44	Z44	X45	Y45	Z45	

153	1.520	1342.94287	240.58559	1660.02405	1475.07715	244.42538	1651.21741	1348.04126	105.98754	1608.74902	1477.61926	111.10017	1605.46704	1403.65112	101.57796	1451.65845	1414.57495	62.98145	1122.93762	1408.94214	209.89879	1372.02661	1404.23303	246.43660	1196.63110	1478.65466	23.36836	1283.50427	1245.82959	159.18492	1404.19165	1169.80017	185.02672	1205.90967	1153.53040	205.01581	1095.29309	1137.20203	294.84900	975.19324	1188.42920	402.16379	909.91113	1147.50854	357.16934	873.59546	1151.86267	435.18982	828.70294	1567.98010	159.00545	1406.81970	1651.96680	91.87959	1215.17383	1662.74854	83.55583	1092.63171	1680.95044	79.84514	972.51428	1652.40051	118.26643	824.69611	1690.91895	64.65472	835.49121	1694.03748	87.65509	753.73395	1307.85645	237.10153	958.84235	1527.71948	241.31972	972.82416	1340.24158	79.09653	987.84247	1508.66992	89.13896	990.71118	1268.48804	142.05476	646.20233	1297.01892	116.81126	484.28537	1315.27185	36.95398	238.38821	1370.45361	2.78122	72.18345	1416.01831	-38.98322	62.49582	1370.49890	145.32033	38.59913	1589.73633	280.53259	651.49585	1562.59363	330.35748	536.66132	1569.73608	313.43243	274.24191	1532.97083	311.50751	87.06548	1490.33813	271.13013	60.64910	1523.63293	461.29007	53.99054	1404.77795	143.08354	1702.12695															 
154	1.530	1343.22302	250.78940	1658.65747	1475.34729	254.68594	1649.84302	1348.29871	116.30772	1607.19922	1477.98767	121.30299	1603.90039	1403.84729	112.07576	1450.22791	1414.85999	72.95404	1121.57898	1409.19983	220.24860	1370.51660	1404.27087	256.57199	1195.06531	1478.48425	33.49088	1282.17432	1246.13611	169.62543	1403.03516	1169.29187	196.18718	1205.28699	1152.87830	216.97533	1094.75977	1136.91333	309.32794	976.71515	1188.80725	417.77115	914.05835	1147.70593	373.97202	876.60449	1152.39624	452.99170	833.65399	1568.25793	169.10254	1405.33606	1651.90649	100.36487	1214.25818	1662.62146	91.13640	1091.73657	1680.80945	86.44362	971.65802	1652.13794	123.67932	823.21716	1690.63074	70.06665	834.72803	1693.86719	92.50764	752.81720	1307.62927	246.44107	957.39899	1527.52319	251.87973	971.36713	1340.58972	88.72359	986.33118	1509.00769	99.64495	989.37555	1268.70288	149.88725	645.09222	1297.36450	123.38456	483.26822	1315.56848	40.20192	238.37119	1370.67200	3.39514	72.72235	1416.46497	-38.71365	63.59970	1370.55127	145.53931	38.54205	1589.56030	288.67450	649.16132	1562.55164	338.53305	534.27209	1569.61267	334.36096	271.86539	1532.94189	343.93765	84.97670	1490.60132	303.84146	57.69814	1521.50769	495.13007	56.81393	1405.08521	153.23337	1700.64734															 
155	1.540	1343.53369	260.99420	1657.25244	1475.68921	264.93042	1648.39258	1348.65442	126.56432	1605.56030	1478.34033	131.64575	1602.28271	1404.22522	122.44115	1448.83960	1415.28809	82.86241	1120.16248	1409.60767	230.66531	1369.01978	1404.37244	266.77057	1193.52527	1478.40784	43.82932	1280.69080	1246.53040	180.10385	1401.77625	1169.07275	207.39478	1204.44495	1152.33777	228.83102	1094.12781	1136.65405	323.27994	977.82813	1189.08813	433.02533	917.94800	1147.98706	390.27792	879.43811	1153.13782	470.38074	838.34766	1568.56604	179.30278	1403.80884	1651.89404	109.05053	1213.26147	1662.64319	98.98346	1090.77466	1680.64478	93.46825	970.63287	1652.21692	129.61067	821.94977	1690.47375	75.96422	833.89374	1693.51013	97.33895	751.61438	1307.53833	256.20813	956.11975	1527.19690	262.66562	969.96027	1341.03772	98.41521	984.80005	1509.47888	110.28455	987.91553	1268.87317	157.76782	643.99652	1297.60986	130.23857	482.26791	1315.78076	43.56726	238.46745	1370.86877	4.03757	73.43598	1416.56909	-37.82084	64.37435	1370.16638	146.00862	38.56186	1590.14478	296.42392	646.54968	1562.86682	346.57071	531.70685	1569.41760	354.67325	269.99991	1532.29004	374.64368	83.79691	1490.55212	335.49734	55.27294	1519.23657	526.88849	61.45546	1405.44678	163.37422	1699.06592															 
156	1.550	1343.90466	271.29211	1655.77539	1476.00537	275.26099	1646.90588	1349.03943	136.88780	1603.90039	1478.70459	142.07355	1600.63220	1404.57690	132.89694	1447.25452	1415.69824	93.10542	1118.69531	1409.96729	241.13432	1367.39221	1404.55835	277.07944	1191.88660	1478.47681	54.16553	1279.19299	1246.98694	190.61632	1400.38086	1168.88342	218.40729	1203.46411	1151.72095	240.98178	1093.24915	1136.30017	337.05472	978.95361	1189.42285	447.81842	921.52307	1148.09302	406.30872	882.05963	1153.73389	487.31122	842.79907	1568.98096	189.59744	1402.21289	1652.00525	117.92407	1212.18201	1662.76257	107.04660	1089.71802	1680.69019	100.66255	969.61829	1652.51892	135.95757	820.75842	1690.41797	82.14271	832.98047	1693.65979	103.36768	750.68201	1306.80774	265.16779	954.51019	1526.98486	273.57629	968.39087	1341.56445	108.21642	983.24200	1510.02759	120.94012	986.32849	1268.90979	165.85999	642.94128	1297.75183	137.28043	481.32367	1316.07861	46.40069	238.92125	1370.93176	4.72055	74.29198	1416.93127	-37.79050	66.04451	1370.65295	146.08330	38.36989	1590.97778	304.18317	643.83362	1563.44507	354.56546	528.85309	1569.25598	374.08600	268.55948	1531.49841	403.65427	83.64650	1489.78674	366.12448	53.31999	1517.33289	556.87817	68.16375	1405.80505	173.58971	1697.45374															 
157	1.560	1344.30518	281.54462	1654.24121	1476.45386	285.53918	1645.39648	1349.46631	147.22034	1602.19312	1479.16760	152.39444	1598.79590	1404.92639	143.44244	1445.65881	1416.26794	103.22118	1117.17810	1410.46875	251.58679	1365.70972	1404.72485	287.51764	1190.29492	1478.64722	64.63531	1277.54773	1247.45117	201.11203	1398.84875	1168.78394	229.30894	1202.29077	1151.44702	252.22926	1092.44922	1136.10327	350.67075	979.87292	1189.59998	462.41339	924.81213	1148.26184	421.79581	884.44873	1154.26489	503.61676	846.89142	1569.41174	199.94824	1400.54700	1652.25012	126.91500	1210.98682	1662.92603	115.34841	1088.60071	1680.84473	108.15226	968.50787	1652.89221	142.69690	819.47034	1690.41333	88.65566	832.00513	1693.78870	109.45134	749.61591	1306.23828	274.94455	953.07263	1526.67859	284.76880	966.76263	1342.07556	118.15681	981.60089	1510.56824	132.04091	984.61810	1268.89844	174.02357	641.89044	1297.80554	144.39189	480.34293	1316.13586	49.80471	239.23027	1370.82935	5.32644	75.25615	1416.59082	-37.11262	67.17410	1370.77100	145.98637	38.40209	1592.12500	312.30536	641.20099	1564.18848	362.94913	525.84271	1568.92395	392.16583	267.39029	1530.29822	430.57394	84.18285	1488.68811	394.50034	52.04113	1515.68628	584.53467	76.06123	1406.27148	183.78224	1695.75806															 
158	1.570	1344.76648	291.86453	1652.68726	1476.91052	295.86691	1643.82764	1349.98254	157.60609	1600.40576	1479.65527	162.83289	1597.08630	1405.51428	153.80992	1443.95264	1416.87573	113.64091	1115.48108	1410.98364	262.12195	1364.08386	1404.93506	298.00845	1188.61658	1478.93005	75.20882	1275.74292	1247.97510	211.63109	1397.23145	1168.80017	240.16145	1201.03052	1151.00635	264.16498	1091.34460	1135.88672	363.97208	980.57983	1189.79382	476.59451	927.77258	1148.36536	436.98376	886.56152	1154.67419	519.40137	850.61951	1569.95544	210.36975	1398.85144	1652.64526	136.15601	1209.75549	1663.33484	123.86316	1087.45728	1681.07349	115.97956	967.32184	1653.37390	149.95636	818.30127	1690.44055	95.60983	830.90039	1693.79163	115.57625	748.27155	1305.90222	284.83377	951.56464	1526.47974	296.09766	965.25366	1342.80457	128.17230	979.89923	1511.26038	143.08401	982.86450	1268.93506	182.47504	640.74860	1297.75171	151.68588	479.28711	1316.02161	53.50621	239.47585	1370.59119	6.01101	76.27181	1416.56018	-36.83729	68.76540	1370.78137	146.14677	38.35417	1593.58752	321.18393	638.71521	1565.13367	371.94360	522.91248	1568.44910	409.11121	266.54401	1528.90442	455.42068	85.23013	1486.91101	420.93164	51.50274	1514.41199	609.76007	84.03883	1406.73523	194.09607	1694.06567															 
